<?xml version="1.0" encoding="UTF-8" standalone="no"?>
<svg
   xmlns:dc="http://purl.org/dc/elements/1.1/"
   xmlns:cc="http://creativecommons.org/ns#"
   xmlns:rdf="http://www.w3.org/1999/02/22-rdf-syntax-ns#"
   xmlns:svg="http://www.w3.org/2000/svg"
   xmlns="http://www.w3.org/2000/svg"
   viewBox="0 0 116 29.333332"
   height="29.333332"
   width="116"
   xml:space="preserve"
   id="svg2"
   version="1.1"><metadata
     id="metadata8"><rdf:RDF><cc:Work
         rdf:about=""><dc:format>image/svg+xml</dc:format><dc:type
           rdf:resource="http://purl.org/dc/dcmitype/StillImage" /></cc:Work></rdf:RDF></metadata><defs
     id="defs6"><clipPath
       id="clipPath18"
       clipPathUnits="userSpaceOnUse"><path
         id="path16"
         d="M 0,22 H 87 V 0 H 0 Z" /></clipPath></defs><g
     transform="matrix(1.3333333,0,0,-1.3333333,0,29.333333)"
     id="g10"><g
       id="g12"><g
         clip-path="url(#clipPath18)"
         id="g14"><g
           transform="translate(79.351)"
           id="g20"><path
             id="path22"
             style="fill:#e91c24;fill-opacity:1;fill-rule:nonzero;stroke:none"
             d="m 0,0 h -71.702 c -4.207,0 -7.649,3.442 -7.649,7.649 v 6.702 c 0,4.207 3.442,7.649 7.649,7.649 H 0 c 4.207,0 7.649,-3.442 7.649,-7.649 V 7.649 C 7.649,3.442 4.207,0 0,0" /></g><text
           id="text26"
           style="font-variant:normal;font-weight:normal;font-stretch:semi-condensed;font-size:14.01550007px;font-family:'Arial Narrow';-inkscape-font-specification:ArialNarrow;writing-mode:lr-tb;fill:#ffffff;fill-opacity:1;fill-rule:nonzero;stroke:none"
           transform="matrix(0.99999998,-2.2118368e-4,-2.2118368e-4,-0.99757409,5.2191,6.1516)"><tspan
             id="tspan24"
             y="0"
             x="0 8.8577967 17.084894 25.942692 34.800488 43.027588 49.979275 58.206371 67.064171">CANCELADO</tspan></text>
</g></g></g></svg>