<?xml version="1.0" encoding="UTF-8" standalone="no"?>
<svg
   xmlns:dc="http://purl.org/dc/elements/1.1/"
   xmlns:cc="http://creativecommons.org/ns#"
   xmlns:rdf="http://www.w3.org/1999/02/22-rdf-syntax-ns#"
   xmlns:svg="http://www.w3.org/2000/svg"
   xmlns="http://www.w3.org/2000/svg"
   viewBox="0 0 232.88933 7.6666665"
   height="7.6666665"
   width="232.88933"
   xml:space="preserve"
   id="svg2"
   version="1.1"><metadata
     id="metadata8"><rdf:RDF><cc:Work
         rdf:about=""><dc:format>image/svg+xml</dc:format><dc:type
           rdf:resource="http://purl.org/dc/dcmitype/StillImage" /></cc:Work></rdf:RDF></metadata><defs
     id="defs6"><clipPath
       id="clipPath18"
       clipPathUnits="userSpaceOnUse"><path
         id="path16"
         d="M 0,5.75 H 174.667 V 0 H 0 Z" /></clipPath></defs><g
     transform="matrix(1.3333333,0,0,-1.3333333,0,7.6666667)"
     id="g10"><g
       id="g12"><g
         clip-path="url(#clipPath18)"
         id="g14"><g
           transform="translate(10.9556,1.1992)"
           id="g20"><path
             id="path22"
             style="fill:#4855a5;fill-opacity:1;fill-rule:nonzero;stroke:none"
             d="m 0,0 h -5.669 c -0.783,0 -1.418,0.635 -1.418,1.417 0,0.783 0.635,1.418 1.418,1.418 H 0 C 0.783,2.835 1.417,2.2 1.417,1.417 1.417,0.635 0.783,0 0,0 M 11.338,0 H 5.669 C 4.886,0 4.251,0.635 4.251,1.417 c 0,0.783 0.635,1.418 1.418,1.418 h 5.669 c 0.783,0 1.418,-0.635 1.418,-1.418 C 12.756,0.635 12.121,0 11.338,0 m 11.339,0 h -5.669 c -0.783,0 -1.418,0.635 -1.418,1.417 0,0.783 0.635,1.418 1.418,1.418 h 5.669 C 23.46,2.835 24.095,2.2 24.095,1.417 24.095,0.635 23.46,0 22.677,0 m 11.339,0 h -5.67 c -0.783,0 -1.417,0.635 -1.417,1.417 0,0.783 0.634,1.418 1.417,1.418 h 5.67 c 0.782,0 1.417,-0.635 1.417,-1.418 C 35.433,0.635 34.798,0 34.016,0 m 11.338,0 h -5.669 c -0.783,0 -1.417,0.635 -1.417,1.417 0,0.783 0.634,1.418 1.417,1.418 h 5.669 c 0.783,0 1.417,-0.635 1.417,-1.418 C 46.771,0.635 46.137,0 45.354,0 m 11.339,0 h -5.67 c -0.782,0 -1.417,0.635 -1.417,1.417 0,0.783 0.635,1.418 1.417,1.418 h 5.67 C 57.476,2.835 58.11,2.2 58.11,1.417 58.11,0.635 57.476,0 56.693,0 m 11.339,0 h -5.67 c -0.783,0 -1.417,0.635 -1.417,1.417 0,0.783 0.634,1.418 1.417,1.418 h 5.67 c 0.783,0 1.417,-0.635 1.417,-1.418 C 69.449,0.635 68.815,0 68.032,0 M 79.37,0 h -5.669 c -0.784,0 -1.417,0.635 -1.417,1.417 0,0.783 0.633,1.418 1.417,1.418 h 5.669 c 0.783,0 1.417,-0.635 1.417,-1.418 C 80.787,0.635 80.153,0 79.37,0 M 90.708,0 H 85.04 c -0.784,0 -1.417,0.635 -1.417,1.417 0,0.783 0.633,1.418 1.417,1.418 h 5.668 c 0.784,0 1.417,-0.635 1.417,-1.418 C 92.125,0.635 91.492,0 90.708,0 m 11.339,0 h -5.67 c -0.783,0 -1.417,0.635 -1.417,1.417 0,0.783 0.634,1.418 1.417,1.418 h 5.67 c 0.784,0 1.417,-0.635 1.417,-1.418 C 103.464,0.635 102.831,0 102.047,0 m 11.338,0 h -5.669 c -0.783,0 -1.417,0.635 -1.417,1.417 0,0.783 0.634,1.418 1.417,1.418 h 5.669 c 0.783,0 1.417,-0.635 1.417,-1.418 C 114.802,0.635 114.168,0 113.385,0 m 11.339,0 h -5.669 c -0.783,0 -1.417,0.635 -1.417,1.417 0,0.783 0.634,1.418 1.417,1.418 h 5.669 c 0.783,0 1.417,-0.635 1.417,-1.418 C 126.141,0.635 125.507,0 124.724,0 m 11.339,0 h -5.669 c -0.783,0 -1.417,0.635 -1.417,1.417 0,0.783 0.634,1.418 1.417,1.418 h 5.669 c 0.783,0 1.417,-0.635 1.417,-1.418 C 137.48,0.635 136.846,0 136.063,0 m 11.339,0 h -5.67 c -0.783,0 -1.417,0.635 -1.417,1.417 0,0.783 0.634,1.418 1.417,1.418 h 5.67 c 0.783,0 1.417,-0.635 1.417,-1.418 C 148.819,0.635 148.185,0 147.402,0 m 11.338,0 h -5.669 c -0.783,0 -1.417,0.635 -1.417,1.417 0,0.783 0.634,1.418 1.417,1.418 h 5.669 c 0.783,0 1.417,-0.635 1.417,-1.418 C 160.157,0.635 159.523,0 158.74,0" /></g></g></g></g></svg>