<?xml version="1.0" encoding="UTF-8" standalone="no"?>
<svg
   xmlns:dc="http://purl.org/dc/elements/1.1/"
   xmlns:cc="http://creativecommons.org/ns#"
   xmlns:rdf="http://www.w3.org/1999/02/22-rdf-syntax-ns#"
   xmlns:svg="http://www.w3.org/2000/svg"
   xmlns="http://www.w3.org/2000/svg"
   viewBox="0 0 46.666668 46.666668"
   height="46.666668"
   width="46.666668"
   xml:space="preserve"
   id="svg2"
   version="1.1"><metadata
     id="metadata8"><rdf:RDF><cc:Work
         rdf:about=""><dc:format>image/svg+xml</dc:format><dc:type
           rdf:resource="http://purl.org/dc/dcmitype/StillImage" /></cc:Work></rdf:RDF></metadata><defs
     id="defs6"><clipPath
       id="clipPath18"
       clipPathUnits="userSpaceOnUse"><path
         id="path16"
         d="M 0,35 H 35 V 0 H 0 Z" /></clipPath></defs><g
     transform="matrix(1.3333333,0,0,-1.3333333,0,46.666667)"
     id="g10"><g
       id="g12"><g
         clip-path="url(#clipPath18)"
         id="g14"><g
           transform="translate(35,17.5)"
           id="g20"><path
             id="path22"
             style="fill:#b5a4d9;fill-opacity:1;fill-rule:nonzero;stroke:none"
             d="m 0,0 c 0,-9.665 -7.835,-17.5 -17.5,-17.5 -9.665,0 -17.5,7.835 -17.5,17.5 0,9.665 7.835,17.5 17.5,17.5 C -7.835,17.5 0,9.665 0,0" /></g><g
           transform="translate(17.5522,17.4962)"
           id="g24"><path
             id="path26"
             style="fill:#b5a4d9;fill-opacity:1;fill-rule:nonzero;stroke:none"
             d="M 0,0 0.017,0.005 0.005,0.014 Z" /></g><g
           transform="translate(17.5568,17.5107)"
           id="g28"><path
             id="path30"
             style="fill:#b5a4d9;fill-opacity:1;fill-rule:nonzero;stroke:none"
             d="M 0,0 0.012,-0.009 0.038,-10e-4 0.033,0.005 H 0.002 Z" /></g><g
           transform="translate(17.5431,17.5156)"
           id="g32"><path
             id="path34"
             style="fill:#b5a4d9;fill-opacity:1;fill-rule:nonzero;stroke:none"
             d="m 0,0 h -0.04 v -0.035 l 0.038,0.012 0.007,0.009 z" /></g><g
           transform="translate(17.5585,17.5156)"
           id="g36"><path
             id="path38"
             style="fill:#b5a4d9;fill-opacity:1;fill-rule:nonzero;stroke:none"
             d="M 0,0 H 0.032 L 0.016,0.022 0,0.001 Z" /></g><g
           transform="translate(17.5552,17.5119)"
           id="g40"><path
             id="path42"
             style="fill:#b5a4d9;fill-opacity:1;fill-rule:nonzero;stroke:none"
             d="M 0,0 -0.005,0.004 H -0.012 L -0.008,-0.01 Z" /></g><g
           transform="translate(17.5552,17.5119)"
           id="g44"><path
             id="path46"
             style="fill:#b5a4d9;fill-opacity:1;fill-rule:nonzero;stroke:none"
             d="m 0,0 -0.008,-0.01 0.002,-0.006 h 0.003 l 0.005,0.015 z" /></g><g
           transform="translate(17.5412,17.4927)"
           id="g48"><path
             id="path50"
             style="fill:#b5a4d9;fill-opacity:1;fill-rule:nonzero;stroke:none"
             d="M 0,0 0.008,0.003 0.006,0.009 Z" /></g><g
           transform="translate(17.5589,17.517)"
           id="g52"><path
             id="path54"
             style="fill:#b5a4d9;fill-opacity:1;fill-rule:nonzero;stroke:none"
             d="M 0,0 0.015,0.021 0.009,0.029 Z" /></g><g
           transform="translate(17.5334,17.5457)"
           id="g56"><path
             id="path58"
             style="fill:#b5a4d9;fill-opacity:1;fill-rule:nonzero;stroke:none"
             d="M 0,0 -0.028,0.088 -0.03,0.09 V 0.004 l 0.018,-0.013 z" /></g><g
           transform="translate(17.541,17.5222)"
           id="g60"><path
             id="path62"
             style="fill:#b5a4d9;fill-opacity:1;fill-rule:nonzero;stroke:none"
             d="M 0,0 0.009,-0.007 H 0.017 L 0.018,-0.005 0.027,0.024 0.015,0.04 -0.008,0.023 Z" /></g><g
           transform="translate(17.5564,17.5624)"
           id="g64"><path
             id="path66"
             style="fill:#b5a4d9;fill-opacity:1;fill-rule:nonzero;stroke:none"
             d="m 0,0 -0.051,0.071 0.028,-0.088 z" /></g><g
           transform="translate(17.5741,17.5379)"
           id="g68"><path
             id="path70"
             style="fill:#b5a4d9;fill-opacity:1;fill-rule:nonzero;stroke:none"
             d="M 0,0 0.057,0.078 0.005,0.041 -0.006,0.008 Z" /></g><g
           transform="translate(17.5789,17.5786)"
           id="g72"><path
             id="path74"
             style="fill:#b5a4d9;fill-opacity:1;fill-rule:nonzero;stroke:none"
             d="m 0,0 -0.022,-0.016 0.011,-0.017 z" /></g><g
           transform="translate(31.6296,7.1948)"
           id="g76"><path
             id="path78"
             style="fill:#6558b1;fill-opacity:1;fill-rule:nonzero;stroke:none"
             d="m 0,0 c 1.052,1.44 1.887,3.057 2.466,4.81 l -16.308,5.336 z" /></g><g
           transform="translate(17.6353,17.4531)"
           id="g80"><path
             id="path82"
             style="fill:#b5a4d9;fill-opacity:1;fill-rule:nonzero;stroke:none"
             d="M 0,0 -0.041,0.057 -0.066,0.048 Z" /></g><g
           transform="translate(17.6138,17.5157)"
           id="g84"><path
             id="path86"
             style="fill:#b5a4d9;fill-opacity:1;fill-rule:nonzero;stroke:none"
             d="m 0,0 h -0.024 l 0.005,-0.006 z" /></g><g
           transform="translate(17.2569,17.5149)"
           id="g88"><path
             id="path90"
             style="fill:#b5a4d9;fill-opacity:1;fill-rule:nonzero;stroke:none"
             d="M 0,0 0.161,-0.053 0.235,0.001 Z" /></g><g
           transform="translate(17.5031,17.6399)"
           id="g92"><path
             id="path94"
             style="fill:#b5a4d9;fill-opacity:1;fill-rule:nonzero;stroke:none"
             d="M 0,0 V -0.004 L 0.002,-0.007 Z" /></g><g
           transform="translate(17.5031,17.55)"
           id="g96"><path
             id="path98"
             style="fill:#b5a4d9;fill-opacity:1;fill-rule:nonzero;stroke:none"
             d="m 0,0 v -0.026 l 0.018,0.013 z" /></g><g
           transform="translate(17.397,17.447)"
           id="g100"><path
             id="path102"
             style="fill:#b5a4d9;fill-opacity:1;fill-rule:nonzero;stroke:none"
             d="M 0,0 0.034,0.011 0.021,0.015 Z" /></g><g
           transform="translate(17.5031,17.345)"
           id="g104"><path
             id="path106"
             style="fill:#b5a4d9;fill-opacity:1;fill-rule:nonzero;stroke:none"
             d="M 0,0 0.026,0.081 0,0.089 Z" /></g><g
           transform="translate(17.5589,17.517)"
           id="g108"><path
             id="path110"
             style="fill:#b5a4d9;fill-opacity:1;fill-rule:nonzero;stroke:none"
             d="M 0,0 -0.001,-0.001 H 0 Z" /></g><g
           transform="translate(17.541,17.5222)"
           id="g112"><path
             id="path114"
             style="fill:#b5a4d9;fill-opacity:1;fill-rule:nonzero;stroke:none"
             d="M 0,0 0.002,-0.007 H 0.009 Z" /></g><g
           transform="translate(17.5578,17.5156)"
           id="g116"><path
             id="path118"
             style="fill:#b5a4d9;fill-opacity:1;fill-rule:nonzero;stroke:none"
             d="m 0,0 h -0.008 l 0.005,-0.004 z" /></g><g
           transform="translate(17.5568,17.5107)"
           id="g120"><path
             id="path122"
             style="fill:#b5a4d9;fill-opacity:1;fill-rule:nonzero;stroke:none"
             d="M 0,0 0.002,0.005 H 0.001 L -0.002,0.001 Z" /></g><g
           transform="translate(17.5031,17.4402)"
           id="g124"><path
             id="path126"
             style="fill:#b5a4d9;fill-opacity:1;fill-rule:nonzero;stroke:none"
             d="M 0,0 0.038,0.052 0,0.04 Z" /></g><g
           transform="translate(17.5508,17.4919)"
           id="g128"><path
             id="path130"
             style="fill:#b5a4d9;fill-opacity:1;fill-rule:nonzero;stroke:none"
             d="M 0,0 0.001,0.004 H -0.001 Z" /></g><g
           transform="translate(17.5211,17.5368)"
           id="g132"><path
             id="path134"
             style="fill:#b5a4d9;fill-opacity:1;fill-rule:nonzero;stroke:none"
             d="M 0,0 0.02,-0.015 0.012,0.009 Z" /></g><g
           transform="translate(17.4997,17.4355)"
           id="g136"><path
             id="path138"
             style="fill:#b5a4d9;fill-opacity:1;fill-rule:nonzero;stroke:none"
             d="M 0,0 0.003,-0.001 V 0.005 Z" /></g><g
           transform="translate(0.8383,12.1955)"
           id="g140"><path
             id="path142"
             style="fill:#b5a4d9;fill-opacity:1;fill-rule:nonzero;stroke:none"
             d="M 0,0 C 0.567,-1.775 1.397,-3.445 2.476,-4.94 L 16.559,5.251 Z" /></g><g
           transform="translate(17.4181,17.4622)"
           id="g144"><path
             id="path146"
             style="fill:#b5a4d9;fill-opacity:1;fill-rule:nonzero;stroke:none"
             d="M 0,0 -0.161,0.053 -17.399,0.014 c 0.001,-1.825 0.283,-3.601 0.819,-5.281 l 16.559,5.252 z" /></g><g
           transform="translate(17.4916,17.5155)"
           id="g148"><path
             id="path150"
             style="fill:#b5a4d9;fill-opacity:1;fill-rule:nonzero;stroke:none"
             d="M 0,0 0.012,0.008 0.011,0.035 -14.073,10.359 c -1.099,-1.489 -1.963,-3.17 -2.551,-4.997 l 16.389,-5.363 z" /></g><g
           transform="translate(0.8673,22.8777)"
           id="g152"><path
             id="path154"
             style="fill:#b5a4d9;fill-opacity:1;fill-rule:nonzero;stroke:none"
             d="m 0,0 c -0.275,-0.852 -0.507,-1.726 -0.651,-2.638 -0.148,-0.93 -0.197,-1.851 -0.197,-2.763 l 17.238,0.038 z" /></g><g
           transform="translate(17.5031,17.6399)"
           id="g156"><path
             id="path158"
             style="fill:#b5a4d9;fill-opacity:1;fill-rule:nonzero;stroke:none"
             d="M 0,0 -5.314,16.52 C -7.059,15.962 -8.7,15.147 -10.176,14.093 L 0,-0.004 Z" /></g><g
           transform="translate(17.5431,17.5156)"
           id="g160"><path
             id="path162"
             style="fill:#b5a4d9;fill-opacity:1;fill-rule:nonzero;stroke:none"
             d="M 0,0 -0.002,0.007 -0.022,0.021 -0.04,0.008 V 0 Z" /></g><g
           transform="translate(17.577,17.4102)"
           id="g164"><path
             id="path166"
             style="fill:#6558b1;fill-opacity:1;fill-rule:nonzero;stroke:none"
             d="m 0,0 5.322,-16.544 c 1.765,0.575 3.424,1.411 4.91,2.494 L 0.117,-0.038 Z" /></g><g
           transform="translate(17.5038,34.9806)"
           id="g168"><path
             id="path170"
             style="fill:#b5a4d9;fill-opacity:1;fill-rule:nonzero;stroke:none"
             d="m 0,0 c -1.838,0.002 -3.624,-0.28 -5.315,-0.821 l 5.314,-16.52 z" /></g><g
           transform="translate(17.4313,17.4579)"
           id="g172"><path
             id="path174"
             style="fill:#b5a4d9;fill-opacity:1;fill-rule:nonzero;stroke:none"
             d="m 0,0 -0.034,-0.011 -14.083,-10.191 c 1.088,-1.506 2.422,-2.827 3.941,-3.927 L 0.068,-0.022 Z" /></g><g
           transform="translate(17.5293,17.4258)"
           id="g176"><path
             id="path178"
             style="fill:#b5a4d9;fill-opacity:1;fill-rule:nonzero;stroke:none"
             d="m 0,0 -0.026,-0.081 -0.001,-17.325 c 1.867,-0.002 3.683,0.289 5.396,0.847 L 0.048,-0.016 Z" /></g><g
           transform="translate(17.7881,17.3411)"
           id="g180"><path
             id="path182"
             style="fill:#6558b1;fill-opacity:1;fill-rule:nonzero;stroke:none"
             d="m 0,0 -0.094,0.031 10.115,-14.012 c 1.459,1.064 2.744,2.362 3.821,3.835 z" /></g><g
           transform="translate(17.5031,17.4344)"
           id="g184"><path
             id="path186"
             style="fill:#b5a4d9;fill-opacity:1;fill-rule:nonzero;stroke:none"
             d="m 0,0 -0.003,0.001 -10.245,-14.107 c 1.467,-1.062 3.114,-1.9 4.902,-2.472 L 0,-0.089 Z" /></g><g
           transform="translate(12.1575,0.8561)"
           id="g188"><path
             id="path190"
             style="fill:#b5a4d9;fill-opacity:1;fill-rule:nonzero;stroke:none"
             d="M 0,0 C 0.841,-0.269 1.703,-0.498 2.602,-0.64 3.525,-0.787 4.439,-0.836 5.345,-0.837 L 5.346,16.489 Z" /></g><g
           transform="translate(17.5031,17.6362)"
           id="g192"><path
             id="path194"
             style="fill:#b5a4d9;fill-opacity:1;fill-rule:nonzero;stroke:none"
             d="m 0,0 -10.176,14.096 c -1.492,-1.066 -2.81,-2.369 -3.909,-3.858 L 0,-0.086 Z" /></g><g
           transform="translate(17.5496,17.4954)"
           id="g196"><path
             id="path198"
             style="fill:#b5a4d9;fill-opacity:1;fill-rule:nonzero;stroke:none"
             d="M 0,0 -0.008,-0.003 -0.047,-0.055 V -0.061 L -0.02,-0.07 0.001,-0.004 Z" /></g><g
           transform="translate(17.5031,17.4807)"
           id="g200"><path
             id="path202"
             style="fill:#b5a4d9;fill-opacity:1;fill-rule:nonzero;stroke:none"
             d="M 0,0 -0.072,-0.023 -0.003,-0.045 0,-0.04 Z" /></g><g
           transform="translate(17.5293,17.4258)"
           id="g204"><path
             id="path206"
             style="fill:#b5a4d9;fill-opacity:1;fill-rule:nonzero;stroke:none"
             d="M 0,0 0.048,-0.016 0.021,0.066 Z" /></g><g
           transform="translate(17.5031,17.5155)"
           id="g208"><path
             id="path210"
             style="fill:#b5a4d9;fill-opacity:1;fill-rule:nonzero;stroke:none"
             d="M 0,0 H -0.012 L -0.085,-0.053 -0.072,-0.058 0,-0.035 Z" /></g><g
           transform="translate(17.5053,17.6333)"
           id="g212"><path
             id="path214"
             style="fill:#6558b1;fill-opacity:1;fill-rule:nonzero;stroke:none"
             d="m 0,0 0.051,-0.071 0.023,0.016 5.36,16.535 c -0.871,0.284 -1.765,0.523 -2.699,0.671 -0.921,0.146 -1.833,0.195 -2.737,0.196 V 0.007 Z" /></g><g
           transform="translate(17.5692,17.5016)"
           id="g216"><path
             id="path218"
             style="fill:#b5a4d9;fill-opacity:1;fill-rule:nonzero;stroke:none"
             d="M 0,0 -0.017,-0.005 -0.018,-0.01 0.008,-0.091 0.125,-0.13 0.066,-0.048 Z" /></g><g
           transform="translate(17.5032,17.5238)"
           id="g220"><path
             id="path222"
             style="fill:#b5a4d9;fill-opacity:1;fill-rule:nonzero;stroke:none"
             d="M 0,0 -0.012,-0.008 H 0 Z" /></g><g
           transform="translate(31.6661,27.7738)"
           id="g224"><path
             id="path226"
             style="fill:#6558b1;fill-opacity:1;fill-rule:nonzero;stroke:none"
             d="M 0,0 C -1.069,1.474 -2.375,2.77 -3.859,3.855 L -14.035,-10.157 Z" /></g><g
           transform="translate(17.631,17.6163)"
           id="g228"><path
             id="path230"
             style="fill:#6558b1;fill-opacity:1;fill-rule:nonzero;stroke:none"
             d="M 0,0 10.176,14.012 C 8.72,15.076 7.084,15.917 5.308,16.497 l -5.36,-16.535 z" /></g><g
           transform="translate(17.694,17.3719)"
           id="g232"><path
             id="path234"
             style="fill:#b5a4d9;fill-opacity:1;fill-rule:nonzero;stroke:none"
             d="M 0,0 0.094,-0.031 -0.059,0.081 Z" /></g><g
           transform="translate(17.5741,17.5379)"
           id="g236"><path
             id="path238"
             style="fill:#6558b1;fill-opacity:1;fill-rule:nonzero;stroke:none"
             d="M 0,0 0.016,-0.022 H 0.04 l 16.559,5.251 c -0.57,1.8 -1.41,3.494 -2.507,5.007 L 0.057,0.078 Z" /></g><g
           transform="translate(17.5945,17.5096)"
           id="g240"><path
             id="path242"
             style="fill:#6558b1;fill-opacity:1;fill-rule:nonzero;stroke:none"
             d="m 0,0 0.041,-0.057 0.153,-0.112 16.307,-5.335 c 0.293,0.888 0.537,1.801 0.689,2.754 0.149,0.941 0.198,1.872 0.196,2.795 L 0.019,0.006 Z" /></g><g
           transform="translate(34.9809,17.5545)"
           id="g244"><path
             id="path246"
             style="fill:#6558b1;fill-opacity:1;fill-rule:nonzero;stroke:none"
             d="M 0,0 C -0.004,1.801 -0.282,3.553 -0.808,5.213 L -17.367,-0.039 Z" /></g><g
           transform="translate(27.2468,17.5)"
           id="g248"><path
             id="path250"
             style="fill:#f8ac42;fill-opacity:1;fill-rule:nonzero;stroke:none"
             d="m 0,0 c 0,-5.383 -4.364,-9.747 -9.747,-9.747 -5.383,0 -9.747,4.364 -9.747,9.747 0,5.383 4.364,9.747 9.747,9.747 C -4.364,9.747 0,5.383 0,0" /></g></g></g></g></svg>