<?xml version="1.0" encoding="UTF-8" standalone="no"?>
<svg
   xmlns:dc="http://purl.org/dc/elements/1.1/"
   xmlns:cc="http://creativecommons.org/ns#"
   xmlns:rdf="http://www.w3.org/1999/02/22-rdf-syntax-ns#"
   xmlns:svg="http://www.w3.org/2000/svg"
   xmlns="http://www.w3.org/2000/svg"
   viewBox="0 0 48 60"
   height="60"
   width="48"
   xml:space="preserve"
   id="svg2"
   version="1.1"><metadata
     id="metadata8"><rdf:RDF><cc:Work
         rdf:about=""><dc:format>image/svg+xml</dc:format><dc:type
           rdf:resource="http://purl.org/dc/dcmitype/StillImage" /></cc:Work></rdf:RDF></metadata><defs
     id="defs6"><clipPath
       id="clipPath18"
       clipPathUnits="userSpaceOnUse"><path
         id="path16"
         d="M 0,45 H 36 V 0 H 0 Z" /></clipPath></defs><g
     transform="matrix(1.3333333,0,0,-1.3333333,0,60)"
     id="g10"><g
       id="g12"><g
         clip-path="url(#clipPath18)"
         id="g14"><g
           transform="translate(18.0662,24.9743)"
           id="g20"><path
             id="path22"
             style="fill:#6a64ad;fill-opacity:1;fill-rule:nonzero;stroke:none"
             d="M 0,0 C 3.401,0.001 6.165,2.745 6.16,6.132 6.155,9.444 3.464,12.227 0.014,12.236 -3.501,12.246 -6.195,9.441 -6.188,6.104 -6.181,2.694 -3.368,-0.027 0,0 m -3.821,-14.225 c -0.246,0.479 -0.565,0.913 -0.851,1.367 -1.025,1.624 -2.059,3.243 -3.081,4.869 -0.936,1.49 -1.869,2.983 -2.79,4.483 -0.749,1.218 -1.49,2.442 -2.169,3.7 -0.493,0.913 -0.77,1.904 -0.993,2.908 -0.474,2.136 -0.451,4.267 0.084,6.391 0.704,2.79 2.154,5.131 4.314,7.043 1.241,1.098 2.641,1.94 4.191,2.543 1.618,0.629 3.295,0.939 5.029,0.946 1.647,0.008 3.249,-0.255 4.803,-0.808 2.03,-0.723 3.798,-1.849 5.303,-3.375 1.46,-1.481 2.536,-3.202 3.222,-5.162 C 13.796,9.095 14.057,7.465 14.015,5.792 13.97,3.995 13.605,2.257 12.883,0.607 12.483,-0.308 11.936,-1.151 11.419,-2.005 10.344,-3.781 9.26,-5.551 8.16,-7.311 7.04,-9.104 5.896,-10.883 4.761,-12.667 c -0.305,-0.48 -0.613,-0.959 -0.919,-1.439 -0.025,-0.038 -0.057,-0.075 -0.043,-0.126 -0.211,-0.236 -0.367,-0.512 -0.524,-0.781 -0.153,-0.261 -0.39,-0.476 -0.457,-0.786 -0.164,-0.046 -0.197,-0.207 -0.272,-0.322 -0.821,-1.253 -1.636,-2.51 -2.448,-3.769 -0.088,-0.136 -0.131,-0.159 -0.227,0 -0.221,0.367 -0.451,0.73 -0.691,1.084 -0.532,0.782 -1.027,1.588 -1.554,2.373 -0.144,0.215 -0.243,0.461 -0.444,0.636 -0.301,0.545 -0.639,1.067 -1.003,1.572" /></g><g
           transform="translate(20.8837,9.1757)"
           id="g24"><path
             id="path26"
             style="fill:#fab45a;fill-opacity:1;fill-rule:nonzero;stroke:none"
             d="M 0,0 C 0.067,0.31 0.305,0.524 0.457,0.786 0.614,1.055 0.77,1.331 0.982,1.566 2.513,1.48 4.035,1.309 5.549,1.065 6.964,0.838 8.363,0.549 9.736,0.142 c 1.18,-0.35 2.334,-0.768 3.398,-1.393 0.683,-0.402 1.322,-0.863 1.723,-1.569 0.361,-0.636 0.341,-1.276 -0.036,-1.896 C 14.43,-5.358 13.845,-5.804 13.207,-6.177 11.678,-7.068 10.005,-7.581 8.294,-7.997 7.249,-8.25 6.192,-8.44 5.131,-8.608 4.199,-8.756 3.26,-8.865 2.32,-8.946 0.242,-9.125 -1.841,-9.208 -3.927,-9.164 c -1.387,0.029 -2.771,0.102 -4.154,0.213 -1.527,0.122 -3.039,0.354 -4.542,0.641 -1.825,0.349 -3.617,0.817 -5.313,1.589 -0.847,0.386 -1.654,0.839 -2.3,1.528 -0.894,0.957 -0.858,2.078 0.079,3 0.816,0.802 1.817,1.296 2.859,1.717 1.646,0.664 3.363,1.078 5.107,1.396 1.676,0.305 3.365,0.508 5.064,0.632 0.162,0.012 0.325,0.015 0.488,0.022 0.365,-0.505 0.702,-1.027 1.003,-1.573 -1.538,-0.095 -3.064,-0.279 -4.571,-0.604 -1.195,-0.257 -2.373,-0.573 -3.475,-1.115 -0.494,-0.242 -0.972,-0.511 -1.322,-0.953 -0.282,-0.355 -0.28,-0.625 -0.001,-0.974 0.21,-0.263 0.471,-0.467 0.754,-0.64 1.068,-0.651 2.251,-1.004 3.455,-1.295 1.401,-0.338 2.824,-0.534 4.259,-0.666 2.1,-0.194 4.201,-0.216 6.304,-0.083 1.227,0.078 2.452,0.206 3.665,0.423 1.288,0.229 2.559,0.519 3.777,1.002 0.722,0.286 1.423,0.607 1.962,1.191 0.353,0.383 0.354,0.709 0.015,1.098 C 8.823,-2.199 8.355,-1.931 7.867,-1.697 6.489,-1.036 5.014,-0.694 3.521,-0.424 2.357,-0.213 1.181,-0.082 0,0" /></g></g></g></g></svg>