<?xml version="1.0" encoding="UTF-8" standalone="no"?>
<svg
   xmlns:dc="http://purl.org/dc/elements/1.1/"
   xmlns:cc="http://creativecommons.org/ns#"
   xmlns:rdf="http://www.w3.org/1999/02/22-rdf-syntax-ns#"
   xmlns:svg="http://www.w3.org/2000/svg"
   xmlns="http://www.w3.org/2000/svg"
   viewBox="0 0 29.333332 29.333332"
   height="29.333332"
   width="29.333332"
   xml:space="preserve"
   id="svg2"
   version="1.1"><metadata
     id="metadata8"><rdf:RDF><cc:Work
         rdf:about=""><dc:format>image/svg+xml</dc:format><dc:type
           rdf:resource="http://purl.org/dc/dcmitype/StillImage" /></cc:Work></rdf:RDF></metadata><defs
     id="defs6"><clipPath
       id="clipPath18"
       clipPathUnits="userSpaceOnUse"><path
         id="path16"
         d="M 0,22 H 22 V 0 H 0 Z" /></clipPath></defs><g
     transform="matrix(1.3333333,0,0,-1.3333333,0,29.333333)"
     id="g10"><g
       id="g12"><g
         clip-path="url(#clipPath18)"
         id="g14"><g
           transform="translate(22,11)"
           id="g20"><path
             id="path22"
             style="fill:#6558b1;fill-opacity:1;fill-rule:nonzero;stroke:none"
             d="m 0,0 c 0,-6.075 -4.925,-11 -11,-11 -6.075,0 -11,4.925 -11,11 0,6.075 4.925,11 11,11 C -4.925,11 0,6.075 0,0" /></g><g
           transform="translate(17.1266,11)"
           id="g24"><path
             id="path26"
             style="fill:#f8ac42;fill-opacity:1;fill-rule:nonzero;stroke:none"
             d="m 0,0 c 0,-3.384 -2.743,-6.127 -6.127,-6.127 -3.383,0 -6.126,2.743 -6.126,6.127 0,3.384 2.743,6.127 6.126,6.127 C -2.743,6.127 0,3.384 0,0" /></g></g></g></g></svg>